<?xml version="1.0" encoding="UTF-8"?>
<svg id="Layer_1" data-name="Layer 1" xmlns="http://www.w3.org/2000/svg" viewBox="0 0 512 512">
  <defs>
    <style>
      .cls-1 {
        fill: #99f;
      }

      .cls-2 {
        fill: #00005b;
      }
    </style>
  </defs>
  <path class="cls-2" d="m90.67,6h330.67c50.13,0,90.67,40.6,90.67,90.81v318.38c0,50.21-40.53,90.81-90.67,90.81H90.67c-50.13,0-90.67-40.6-90.67-90.81V96.81C0,46.6,40.53,6,90.67,6Z"/>
  <path class="cls-1" d="m205.65,305.07h-79.36l-16.21,50.35c-.43,1.92-2.13,3.2-4.05,2.99h-40.11c-2.35,0-2.99-1.28-2.35-3.84l68.69-196.91c.64-2.13,1.28-4.05,2.13-6.61.85-4.48,1.28-9.17,1.28-13.87-.21-1.07.64-2.13,1.71-2.35h55.25c1.49,0,2.56.64,2.77,1.71l77.87,217.6c.64,2.35,0,3.41-2.13,3.41h-44.59c-1.49.21-2.99-.85-3.41-2.35l-17.49-51.2v1.07h0Zm-66.99-42.45h54.19c-1.28-4.48-2.99-9.81-4.91-15.36-1.92-5.76-3.84-11.95-5.76-18.35-2.13-6.61-4.05-13.01-6.19-19.63s-4.05-12.8-5.76-18.99c-1.71-5.97-3.2-11.52-4.69-16.64h-.43c-1.92,9.17-4.27,18.35-7.25,27.52-3.2,10.24-6.4,20.91-9.81,31.57-2.77,10.88-6.19,20.91-9.39,29.87h0Zm260.27,23.25h-67.63c.85,6.61,2.99,13.23,6.61,18.99,3.84,5.76,9.17,10.24,15.57,12.8,8.53,3.63,17.92,5.55,27.31,5.33,7.47-.21,14.93-.85,22.19-2.35,6.61-.85,13.01-2.56,18.99-4.91,1.07-.85,1.71-.43,1.71,1.71v32.64c0,.85-.21,1.71-.43,2.56-.43.64-.85,1.07-1.49,1.49-6.83,2.99-13.87,5.12-21.33,6.4-10.03,1.92-20.05,2.77-30.29,2.56-16.21,0-29.87-2.56-40.96-7.47-10.45-4.48-19.63-11.52-26.88-20.27-6.83-8.32-11.73-17.71-14.72-27.95-2.99-10.03-4.48-20.48-4.48-31.15,0-11.52,1.71-22.83,5.33-33.92,3.41-10.67,8.75-20.48,16-29.23,7.04-8.53,15.79-15.36,25.81-20.27,10.03-4.91,21.97-6.61,35.63-6.61,11.31-.21,22.61,1.92,33.07,6.61,8.75,3.84,16.43,9.6,22.4,17.07,5.55,7.25,10.03,15.36,12.8,24.32,2.77,8.53,4.05,17.28,4.05,26.03,0,5.12-.21,9.6-.43,13.65-.43,4.05-.64,7.04-.85,8.96-.21,1.49-1.49,2.77-2.99,2.77-1.28,0-3.63.21-7.04.43-3.41.43-7.47.64-12.37.64s-10.03-.85-15.57-.85h0Zm-67.63-31.15h45.01c5.55,0,9.6,0,12.16-.21,1.71-.21,3.41-.64,4.91-1.71v-2.13c0-2.77-.43-5.33-1.28-7.89-3.84-11.95-15.15-20.05-27.73-19.63-11.73-.64-22.83,5.55-28.37,16.21-2.56,4.91-4.05,10.03-4.69,15.36h0Z"/>
</svg>