<?xml version="1.0" encoding="UTF-8"?>
<svg id="Layer_1" data-name="Layer 1" xmlns="http://www.w3.org/2000/svg" viewBox="0 0 512 512">
  <defs>
    <style>
      .cls-1 {
        fill: #001e36;
      }

      .cls-2 {
        fill: #31a8ff;
      }
    </style>
  </defs>
  <path class="cls-1" d="m90.66,6h330.68c50.12,0,90.66,40.6,90.66,90.8v318.4c0,50.2-40.54,90.8-90.66,90.8H90.66c-50.12,0-90.66-40.6-90.66-90.8V96.8C0,46.6,40.54,6,90.66,6Z"/>
  <path class="cls-2" d="m179.72,359.24H57.91c-2.2,0-3-1.2-3-3.79v-218.06c0-2.2.8-3,2.8-3h37.74c1.4,0,2.2.8,2.2,2.4v179.12h88.66c2,0,2.6,1,2.2,3l-5.59,37.14c-.2,1.2-.6,2.2-1.2,2.6s-1.4.6-2,.6h0Zm30.35-170.73h33.75c2,0,3.2,1,3.99,3.39.6,1.4,1.2,3.2,1.4,4.99.4,2.2.6,4.39.8,6.59.2,2.4.2,4.99.2,7.59,5.59-7.19,12.58-13.58,20.57-18.37,8.59-5.19,18.57-7.99,28.56-7.59,2,0,2.8,1,2.8,3v41.54c0,1.8-1,2.4-3,2.4-6.79-.4-13.58,0-20.17,1.4-5.59,1.2-10.78,3.2-15.98,5.79-3.79,2-7.39,4.79-10.38,7.99v108.83c0,2.2-.8,3-2.6,3h-37.14c-2.2,0-3-1-3-3.39v-118.22c0-5.19,0-10.38-.2-15.98,0-5.59-.2-11.18-.4-16.57-.2-4.79-.6-9.39-1.2-14.18,0-.6,0-1.2.4-2,.6-.2,1-.4,1.6-.2h0Zm243.42-31.55c-4.39-2-9.39-3-14.38-3.59-7.19-.8-14.58-1.2-21.77-1.2-20.97,0-39.34,4.39-54.32,13.18-14.98,8.79-27.36,21.77-35.34,37.34-8.39,15.78-12.38,34.55-12.38,55.51-.2,12.58,1.4,25.16,4.79,37.54,3,10.38,7.39,20.17,13.58,29.15,5.79,8.39,12.78,15.38,20.97,21.17s17.37,10.18,27.16,12.78c9.98,2.8,20.77,4.19,31.15,4.19,7.39,0,14.78-.4,21.97-1.4,5.99-.6,11.78-2.2,17.37-4.19,2.2-1,3.39-3.2,3.2-5.79v-31.75c.2-1-.2-2.4-1-3.2-.6-.4-1.8-1-3.39.2-4.79,1.8-9.78,3-14.98,3.59-6.19.6-12.38.8-18.57.8-5.59,0-11.38-.8-16.57-2.4-5.79-1.4-11.18-3.79-16.17-6.79-5.39-3.2-9.78-7.39-13.38-12.38-3.99-5.59-7.19-11.78-9.39-18.37-2.4-8.19-3.59-16.37-3.39-24.96-.2-11.78,2.2-23.56,6.99-34.15,4.39-9.19,11.38-16.97,19.97-22.37,9.39-5.59,20.17-8.39,31.15-8.19,6.59,0,13.38.4,19.97,1.8,5.39.8,10.38,2.6,15.38,5.19.8.4,2,.4,2.8,0,.8-.8,1.4-2,1.2-3.2v-33.35c0-2.2-.8-3.99-2.6-5.19h0Z"/>
</svg>