<?xml version="1.0" encoding="UTF-8"?>
<svg id="Layer_1" data-name="Layer 1" xmlns="http://www.w3.org/2000/svg" viewBox="0 0 512 512">
  <defs>
    <style>
      .cls-1 {
        fill: #99f;
      }

      .cls-2 {
        fill: #00005b;
      }
    </style>
  </defs>
  <path class="cls-2" d="m90.67,6h330.67c50.13,0,90.67,40.6,90.67,90.81v318.38c0,50.21-40.53,90.81-90.67,90.81H90.67c-50.13,0-90.67-40.6-90.67-90.81V96.81C0,46.6,40.53,6,90.67,6Z"/>
  <path class="cls-1" d="m121.6,356.27v-219.73c0-1.49.64-2.35,2.13-2.35,3.63,0,7.04,0,11.95-.21,5.12-.21,10.45-.21,16.21-.43s11.95-.21,18.56-.43,13.01-.21,19.41-.21c17.49,0,32,2.13,43.95,6.61,10.67,3.63,20.48,9.6,28.59,17.49,6.83,6.83,12.16,15.15,15.57,24.32,3.2,8.96,4.91,18.13,4.91,27.73,0,18.35-4.27,33.49-12.8,45.44s-20.48,20.91-34.35,26.03c-14.51,5.33-30.51,7.25-48,7.25-5.12,0-8.53,0-10.67-.21s-5.12-.21-9.17-.21v68.48c.21,1.49-.85,2.77-2.35,2.99h-41.39c-1.71,0-2.56-.85-2.56-2.77v.21Zm46.51-180.69v71.68c2.99.21,5.76.43,8.32.43h11.31c8.32,0,16.64-1.28,24.53-3.84,6.83-1.92,12.8-5.97,17.49-11.31,4.48-5.33,6.61-12.59,6.61-21.97.21-6.61-1.49-13.23-4.91-18.99-3.63-5.55-8.75-9.81-14.93-12.16-7.89-3.2-16.43-4.48-25.17-4.27-5.55,0-10.45,0-14.51.21-4.27-.21-7.25,0-8.75.21h0Zm145.49,12.59h37.33c2.13,0,3.84,1.49,4.48,3.41.64,1.71,1.07,3.41,1.28,5.33.43,2.13.85,4.48,1.07,6.61.21,2.35.43,4.91.43,7.68,6.4-7.47,14.08-13.65,22.83-18.35,9.81-5.55,21.12-8.32,32.43-8.32,1.49-.21,2.77.85,2.99,2.35v42.45c0,1.71-1.07,2.35-3.41,2.35-7.68-.21-15.57.43-23.04,2.13-6.19,1.28-12.16,3.2-17.92,5.76-4.05,1.92-7.89,4.48-10.88,7.89v108.8c0,2.13-.85,2.99-2.77,2.99h-42.03c-1.71.21-3.2-.85-3.41-2.56v-119.04c0-5.12,0-10.45-.21-16s-.21-11.09-.43-16.64c0-4.91-.43-9.6-.85-14.51-.21-1.07.43-2.13,1.49-2.35,0-.21.43-.21.64,0h0Z"/>
</svg>