<?xml version="1.0" encoding="UTF-8"?>
<svg id="Layer_1" data-name="Layer 1" xmlns="http://www.w3.org/2000/svg" viewBox="0 0 512 512">
  <defs>
    <style>
      .cls-1 {
        fill: #ff9a00;
      }

      .cls-2 {
        fill: #300;
      }
    </style>
  </defs>
  <path class="cls-2" d="m90.67,6h330.67c50.13,0,90.67,40.6,90.67,90.81v318.38c0,50.21-40.53,90.81-90.67,90.81H90.67c-50.13,0-90.67-40.6-90.67-90.81V96.81C0,46.6,40.53,6,90.67,6Z"/>
  <path class="cls-1" d="m247.47,305.07h-79.36l-16.21,50.13c-.43,1.92-2.13,3.2-4.05,2.99h-40.11c-2.35,0-2.99-1.28-2.35-3.84l68.69-197.76c.64-2.13,1.28-4.48,2.13-7.04.85-4.48,1.28-9.17,1.28-13.87-.21-1.07.64-2.13,1.71-2.35h55.25c1.71,0,2.56.64,2.77,1.71l77.87,219.73c.64,2.35,0,3.41-2.13,3.41h-44.59c-1.49.21-2.99-.85-3.41-2.35l-17.49-50.77Zm-66.99-43.31h54.19c-1.28-4.48-2.99-9.81-4.91-15.36-1.92-5.76-3.84-11.95-5.76-18.35-2.13-6.61-4.05-13.01-6.19-19.63-2.13-6.61-4.05-12.8-5.76-18.99-1.71-5.97-3.2-11.52-4.69-16.64h-.43c-1.92,9.17-4.27,18.35-7.25,27.52-3.2,10.24-6.4,20.91-9.81,31.57-2.99,10.88-6.19,20.91-9.39,29.87h0Zm182.19-91.09c-7.04.21-13.87-2.56-18.99-7.47-4.91-5.33-7.47-12.37-7.25-19.63-.21-7.25,2.56-14.08,7.68-18.99s11.95-7.47,18.99-7.47c8.32,0,14.72,2.56,19.41,7.47,4.69,5.12,7.25,11.95,7.04,18.99.21,7.25-2.35,14.29-7.47,19.63-4.91,5.12-12.16,7.89-19.41,7.47h0Zm-23.89,185.17v-164.27c0-2.13.85-2.99,2.77-2.99h42.24c1.92,0,2.77,1.07,2.77,2.99v164.27c0,2.35-.85,3.41-2.77,3.41h-41.81c-2.13,0-3.2-1.28-3.2-3.41Z"/>
</svg>