<?xml version="1.0" encoding="UTF-8"?>
<svg id="Layer_1" data-name="Layer 1" xmlns="http://www.w3.org/2000/svg" viewBox="0 0 512 512">
  <defs>
    <style>
      .cls-1 {
        fill: #49021f;
      }

      .cls-2 {
        fill: #f36;
      }
    </style>
  </defs>
  <path class="cls-1" d="m90.67,6h330.67c50.13,0,90.67,40.6,90.67,90.81v318.38c0,50.21-40.53,90.81-90.67,90.81H90.67c-50.13,0-90.67-40.6-90.67-90.81V96.81C0,46.6,40.53,6,90.67,6Z"/>
  <path class="cls-2" d="m186.03,136.96v219.73c0,2.35-1.07,3.41-2.99,3.41h-41.81c-1.92,0-2.77-1.07-2.77-3.41v-219.73c0-1.92,1.07-2.77,2.99-2.77h41.6c1.28-.21,2.56.64,2.77,2.13.21.21.21.43.21.64h0Zm123.31,225.71c-15.79.21-31.57-2.99-45.87-9.6-13.44-6.19-24.53-16.43-32.21-29.01-7.89-13.01-11.73-29.23-11.73-48.64-.21-15.79,3.84-31.36,11.73-45.01,8.11-13.87,19.84-25.39,33.92-33.07,14.93-8.32,32.85-12.37,53.97-12.37,1.07,0,2.56,0,4.48.21s4.05.21,6.61.43v-67.41c0-1.49.64-2.35,2.13-2.35h43.31c1.07-.21,1.92.64,2.13,1.49v203.52c0,3.84.21,8.11.43,12.8.43,4.48.64,8.75.85,12.37,0,1.49-.64,2.77-2.13,3.41-11.09,4.69-22.83,8.11-34.77,10.24-10.67,1.92-21.76,2.99-32.85,2.99h0Zm20.91-42.67v-93.87c-1.92-.43-3.84-.85-5.76-1.07-2.35-.21-4.69-.43-7.04-.43-8.32,0-16.64,1.71-24.11,5.55-7.25,3.63-13.44,8.96-18.13,15.79s-7.04,16-7.04,27.09c-.21,7.47,1.07,14.93,3.63,21.97,2.13,5.76,5.33,10.88,9.6,15.15,4.05,3.84,8.96,6.83,14.51,8.53,5.76,1.92,11.73,2.77,17.71,2.77,3.2,0,6.19-.21,8.96-.43,2.77.21,5.33-.21,7.68-1.07h0Z"/>
</svg>