<?xml version="1.0" encoding="UTF-8"?>
<svg id="Layer_1" data-name="Layer 1" xmlns="http://www.w3.org/2000/svg" xmlns:xlink="http://www.w3.org/1999/xlink" viewBox="0 0 512 512">
  <defs>
    <style>
      .cls-1 {
        fill: url(#linear-gradient-2);
      }

      .cls-2 {
        fill: url(#linear-gradient);
      }
    </style>
    <linearGradient id="linear-gradient" x1="-1220.28" y1="636.79" x2="-1125.96" y2="717.94" gradientTransform="translate(3604.78 -1889.74) scale(2.96 2.99)" gradientUnits="userSpaceOnUse">
      <stop offset="0" stop-color="#5a9fd4"/>
      <stop offset="1" stop-color="#306998"/>
    </linearGradient>
    <linearGradient id="linear-gradient-2" x1="-1089.52" y1="767.05" x2="-1123.21" y2="719.4" gradientTransform="translate(3604.78 -1889.74) scale(2.96 2.99)" gradientUnits="userSpaceOnUse">
      <stop offset="0" stop-color="#ffd43b"/>
      <stop offset="1" stop-color="#ffe873"/>
    </linearGradient>
  </defs>
  <path class="cls-2" d="m252.98,0c-20.88.1-40.82,1.88-58.37,4.98-51.69,9.13-61.07,28.24-61.07,63.5v46.55h122.15v15.52H87.7c-35.5,0-66.58,21.34-76.31,61.93C.18,239.01-.32,268.04,11.39,316.62c8.68,36.16,29.42,61.93,64.92,61.93h42v-55.81c0-40.32,34.88-75.88,76.31-75.88h122c33.96,0,61.07-27.96,61.07-62.07v-116.32c0-33.1-27.93-57.97-61.07-63.5C295.63,1.49,273.87-.1,252.98,0h0Zm-66.06,37.44c12.62,0,22.92,10.47,22.92,23.35s-10.3,23.21-22.92,23.21-22.92-10.37-22.92-23.21,10.26-23.35,22.92-23.35h0Z"/>
  <path class="cls-1" d="m392.93,130.55v54.24c0,42.05-35.65,77.45-76.31,77.45h-122c-33.42,0-61.07,28.6-61.07,62.07v116.31c0,33.11,28.78,52.58,61.07,62.07,38.66,11.37,75.74,13.43,122,0,30.75-8.9,61.07-26.82,61.07-62.07v-46.55h-122v-15.52h183.08c35.5,0,48.73-24.76,61.07-61.93,12.76-38.26,12.21-75.06,0-124.14-8.77-35.34-25.53-61.93-61.07-61.93h-45.84Zm-68.62,294.55c12.66,0,22.92,10.37,22.92,23.21s-10.26,23.35-22.92,23.35-22.92-10.47-22.92-23.35,10.3-23.21,22.92-23.21Z"/>
</svg>