<?xml version="1.0" encoding="UTF-8"?>
<svg id="Layer_1" data-name="Layer 1" xmlns="http://www.w3.org/2000/svg" viewBox="0 0 512 512">
  <defs>
    <style>
      .cls-1 {
        fill: #fff;
      }

      .cls-2 {
        fill: #141e28;
      }
    </style>
  </defs>
  <rect class="cls-2" width="512" height="512" rx="50" ry="50"/>
  <path class="cls-1" d="m311.35,406c-7.2,0-13.02-5.83-13.02-13.03v-50.42c.74-9.85-2.4-18.57-8.57-24.93-3.46-3.57-4.59-8.8-2.91-13.47,1.69-4.68,5.88-7.99,10.82-8.55,37.54-4.17,72.29-16.55,72.29-78.24,0-14.91-5.66-29.07-15.95-39.87-3.43-3.61-4.5-8.87-2.76-13.54,3.76-10.11,4.36-20.94,1.81-31.23-6.13,1.41-17.46,5.39-34.45,16.78-3.13,2.12-7.03,2.73-10.66,1.76-27.59-7.49-56.75-7.49-84.34,0-3.64.96-7.54.34-10.66-1.76-16.83-11.28-28.1-15.29-34.48-16.69-2.53,10.27-1.93,21.07,1.84,31.14,1.74,4.67.67,9.92-2.77,13.54-10.37,10.89-16.02,25.16-15.95,40.19,0,60.94,34.82,73.66,72.45,78.33,4.9.61,9.04,3.93,10.68,8.59,1.65,4.67.52,9.85-2.93,13.4-6.08,6.28-9.21,14.91-8.6,23.64v11.4c.04.57.04,1.13,0,1.69l.03,38.24c0,7.2-5.83,13.03-13.02,13.03s-13.02-5.83-13.02-13.03v-22.76c-39.3,5.98-55.94-15.11-67.39-29.67-5.06-6.42-9.44-11.98-13.91-13.1-6.98-1.74-11.22-8.82-9.47-15.79,1.76-7,8.83-11.21,15.8-9.48,13.11,3.27,21.05,13.36,28.06,22.25,10.89,13.84,19.72,25.04,46.92,19.37v-1.25c-.59-8.08.78-16.35,3.87-24.07-36.7-8.37-75.49-30.86-75.49-100.73-.1-19.09,6.23-37.39,17.95-52.26-4.48-16.98-3.19-34.89,3.81-51.22,1.53-3.56,4.55-6.25,8.27-7.35,4.74-1.43,22.5-4.08,56.95,17.73,28.42-6.76,58.1-6.74,86.51,0,34.44-21.8,52.18-19.16,56.95-17.73,3.71,1.1,6.74,3.8,8.27,7.35,6.99,16.33,8.29,34.25,3.82,51.22,11.62,14.74,17.94,32.88,17.94,51.87,0,73.94-44.92,94.41-75.39,101.05,3.09,7.91,4.41,16.51,3.73,25.18l.04,49.38c0,7.2-5.82,13.03-13.02,13.03Z"/>
</svg>