<?xml version="1.0" encoding="UTF-8"?>
<svg id="Layer_1" data-name="Layer 1" xmlns="http://www.w3.org/2000/svg" viewBox="0 0 512 512">
  <defs>
    <style>
      .cls-1 {
        fill: #fff;
      }
    </style>
  </defs>
  <g>
    <path d="m46.01,512c-7.55-3.32-15.79-5.63-22.52-10.16C8.47,491.73.1,477.12.09,458.74-.03,322.46-.05,186.18.16,49.89c.02-11.12,5.07-20.98,12.13-29.61C24.57,5.27,40.86-.06,59.76,0c56.81.19,113.63.09,170.44.04,7.03,0,12.64,2.1,17.85,7.35,45.05,45.42,90.31,90.64,135.7,135.73,4.36,4.33,6.17,9.14,6.18,14.81.06,99.3.15,198.6-.07,297.89-.04,15.6-5.29,29.75-17,40.65-8.27,7.69-17.92,13.08-29.38,14.62-.53.07-1,.59-1.5.9H46.01ZM359.97,170.05c-1.79,0-3.09,0-4.39,0-34.32-.01-68.64.04-102.96-.12-3.62-.02-7.48-.67-10.82-2.04-11.2-4.58-22.03-17.75-21.91-31.34.31-33.82.1-67.64.1-101.46,0-1.6,0-3.2,0-5.02-16.7,0-32.83,0-48.97,0-38.82,0-77.64,0-116.45,0-13.92,0-24.54,11.52-24.54,24.04.02,134.78,0,269.56.06,404.34,0,12.47,10.9,23.48,23.44,23.48,94.13.06,188.26.05,282.39.01,1.57,0,3.15-.48,4.69-.86,12.01-2.95,19.43-14.03,19.42-26.53-.1-90.13-.05-180.26-.05-270.39v-14.11Zm-109.99-117.73c0,27.37,0,54.33,0,81.29,0,5.99.47,6.44,6.64,6.44,25.79,0,51.59,0,77.38,0,1.21,0,2.42-.15,3.39-.22-29.11-29.14-58.1-58.15-87.42-87.5Z"/>
    <path d="m194.22,342c-26.63,0-53.26.01-79.9,0-7.69,0-13.73-6.28-14.39-13.61-.86-9.51,6.6-16.3,14.2-16.33,16.64-.06,33.29-.04,49.93-.04,36.12,0,72.24,0,108.36,0,9.41,0,14.41,3.77,16.62,12.42,2.15,8.4-5.01,17.53-13.94,17.55-26.96.05-53.93.02-80.89,0Z"/>
    <path d="m194.32,412.01c-26.47,0-52.93.01-79.4,0-8.67,0-14.42-6.13-15.04-14.52-.56-7.58,6.14-15.53,15.16-15.51,52.6.11,105.2.03,157.79.09,4.8,0,9.13,1.26,12.8,4.95,3.45,3.46,5.59,10.5,2.64,16.11-2.71,5.13-6.8,8.87-13.06,8.88-26.96.05-53.93.02-80.89.02Z"/>
    <path d="m164.33,272.02c-16.64,0-33.27.02-49.91,0-7.73-.01-13.83-6.21-14.48-13.5-.87-9.76,6.6-16.4,14.08-16.41,33.27-.08,66.55-.2,99.82.06,7.96.06,14,3.43,15.83,13.51.87,4.79-1.46,12-10.26,15.48-1.59.63-3.44.85-5.18.86-16.64.06-33.27.04-49.91.04v-.02Z"/>
  </g>
  <g>
    <path d="m212,373.69c0-8.01,0-16.01,0-24.02.2-.48.51-.94.58-1.43.62-5.02.63-10.19,1.91-15.03,2.46-9.34,5.23-18.65,8.6-27.69,6.67-17.91,17.32-33.43,30.41-47.23,4.83-5.09,10.34-9.57,15.76-14.06,12.26-10.15,26.07-17.6,41.04-22.97,9.92-3.56,20.01-6.32,30.51-7.53,3.24-.37,6.43-1.13,9.64-1.72,7.63,0,15.25,0,22.88,0,1.3.39,2.57.95,3.9,1.14,5.75.86,11.63,1.16,17.27,2.47,21.9,5.12,41.93,14.21,59.76,28.16,10.5,8.22,19.86,17.51,27.84,28.07,9.42,12.46,16.72,26.16,21.83,40.99,4.16,12.07,6.69,24.48,7.77,37.15.47,5.43.3,10.94.01,16.39-.34,6.6-.91,13.21-1.73,19.78-1.82,14.56-6.54,28.29-12.92,41.42-5.82,11.97-13.2,22.93-22.01,32.98-8.38,9.55-17.59,18.19-28.26,24.99-8.74,5.56-17.97,10.46-27.31,14.95-6,2.88-12.47,5.09-18.97,6.55-9.55,2.13-19.26,4.14-28.99,4.68-10.51.59-21.23.28-31.64-1.18-13.25-1.85-26.07-5.76-38.42-11.24-15.72-6.97-29.73-16.4-42.3-27.98-4.83-4.45-9.31-9.37-13.36-14.53-4.82-6.13-9.31-12.57-13.39-19.21-6.65-10.82-11.63-22.47-14.85-34.76-1.86-7.11-2.94-14.43-4.33-21.66-.48-2.48-.82-4.98-1.22-7.47Zm18.6-11.9c.24,36.98,13.5,68.63,39.74,94.17,26.23,25.53,58.18,38.3,95.14,37.22,36.23-1.06,66.97-15.08,91.91-41,24.12-25.07,36.11-55.71,36.01-90.32-.11-37.06-13.75-69.12-40.72-94.82-25.27-24.08-55.95-36.17-90.73-36.1-38.86.07-71.92,14.64-97.93,43.76-22.12,24.76-33.16,53.97-33.42,87.1Z"/>
    <path class="cls-1" d="m230.6,361.78c.26-33.13,11.3-62.34,33.42-87.1,26.01-29.12,59.07-43.68,97.93-43.76,34.78-.06,65.46,12.03,90.73,36.1,26.97,25.7,40.61,57.76,40.72,94.82.1,34.61-11.89,65.25-36.01,90.32-24.94,25.92-55.68,39.94-91.91,41-36.96,1.08-68.91-11.69-95.14-37.22-26.23-25.54-39.5-57.19-39.74-94.17Zm122.2,33.09c-.25.18-.5.35-.75.53-.58-.76-1.07-1.6-1.74-2.27-11.8-11.82-23.61-23.63-35.45-35.4-4.4-4.38-11-4.69-14.45-.48-3.44,4.18-3.93,8.57.85,13.36,17.19,17.2,34.6,34.19,51.49,51.68,4.37,4.52,14.1,4.53,18.41.18,17.33-17.47,34.86-34.75,52.16-52.25,3.65-3.7,4.04-9.15.1-13.02-3.91-3.84-9.35-3.99-13.3-.07-12.13,12.04-24.2,24.14-36.3,36.21-.63.63-1.31,1.2-2.25,2.05,0-31.26.01-62-.03-92.74,0-2.68-.26-5.37-.58-8.03-.54-4.55-5.23-8.04-10.06-7.63-4.23.37-8.09,4.61-8.09,8.94-.01,19.32-.01,38.65-.02,57.97,0,13.66,0,27.32,0,40.97Z"/>
    <path d="m352.8,394.88c0-13.66,0-27.32,0-40.97,0-19.32,0-38.65.02-57.97,0-4.34,3.86-8.58,8.09-8.94,4.83-.42,9.52,3.07,10.06,7.63.32,2.66.58,5.35.58,8.03.04,30.74.03,61.48.03,92.74.94-.85,1.62-1.42,2.25-2.05,12.1-12.07,24.17-24.17,36.3-36.21,3.95-3.92,9.39-3.77,13.3.07,3.94,3.87,3.55,9.33-.1,13.02-17.3,17.5-34.83,34.78-52.16,52.25-4.31,4.35-14.04,4.34-18.41-.18-16.89-17.49-34.29-34.48-51.49-51.68-4.79-4.79-4.29-9.18-.85-13.36,3.46-4.21,10.05-3.9,14.45.48,11.84,11.78,23.65,23.59,35.45,35.4.67.67,1.17,1.51,1.74,2.27.25-.18.5-.35.75-.53Z"/>
  </g>
</svg>