<?xml version="1.0" encoding="UTF-8"?>
<svg id="Layer_1" data-name="Layer 1" xmlns="http://www.w3.org/2000/svg" viewBox="0 0 512 512">
  <defs>
    <style>
      .cls-1 {
        fill: #f0db4f;
      }

      .cls-2 {
        fill: #323330;
      }
    </style>
  </defs>
  <path class="cls-1" d="m0,0h512v512H0V0Z"/>
  <path class="cls-2" d="m470.1,389.89c-3.75-23.36-18.98-42.97-64.1-61.27-15.67-7.2-33.14-12.36-38.35-24.24-1.85-6.91-2.09-10.8-.92-14.99,3.36-13.58,19.57-17.81,32.41-13.92,8.27,2.77,16.11,9.15,20.83,19.32,22.1-14.31,22.05-14.21,37.48-24.04-5.65-8.76-8.66-12.8-12.36-16.55-13.29-14.84-31.39-22.49-60.35-21.9-5.01.63-10.07,1.31-15.09,1.95-14.45,3.65-28.23,11.24-36.31,21.41-24.24,27.5-17.33,75.63,12.17,95.44,29.06,21.8,71.74,26.77,77.19,47.16,5.3,24.97-18.35,33.05-41.86,30.17-17.33-3.6-26.96-12.41-37.38-28.42q-19.18,11.1-38.89,22.44c4.67,10.22,9.59,14.84,17.42,23.7,37.09,37.62,129.9,35.77,146.54-21.17.68-1.95,5.16-14.99,1.56-35.09Zm-191.76-154.57h-47.89c0,41.37-.19,82.45-.19,123.81,0,26.33,1.36,50.47-2.92,57.87-7.01,14.55-25.16,12.75-33.44,9.93-8.42-4.14-12.7-10.03-17.67-18.35-1.36-2.38-2.38-4.23-2.73-4.38-12.99,7.93-25.94,15.91-38.94,23.85,6.47,13.29,16.01,24.82,28.23,32.32,18.25,10.95,42.78,14.31,68.43,8.42,16.69-4.87,31.1-14.94,38.64-30.27,10.9-20.1,8.57-44.43,8.47-71.35.24-43.9,0-87.8,0-131.84h0Z"/>
</svg>