<?xml version="1.0" encoding="UTF-8"?>
<svg id="Layer_1" data-name="Layer 1" xmlns="http://www.w3.org/2000/svg" viewBox="0 0 512 512">
  <defs>
    <style>
      .cls-1 {
        fill: #fff;
      }

      .cls-2 {
        fill: #5a6ef0;
      }
    </style>
  </defs>
  <rect class="cls-2" width="512" height="512" rx="50" ry="50"/>
  <path class="cls-1" d="m360.1,160.24c-19.7-9.12-40.51-15.59-61.89-19.24-2.71,4.78-5.78,11.19-7.92,16.37-22.74-3.41-45.85-3.41-68.59,0-2.43-5.59-5.14-11.06-8.14-16.37-21.41,3.64-42.24,10.14-61.94,19.32-39.05,58.58-49.66,115.78-44.37,172.1,22.92,17.14,48.61,30.18,75.93,38.56,6.15-8.38,11.59-17.26,16.27-26.55-8.88-3.33-17.44-7.45-25.6-12.31,2.13-1.62,4.19-3.25,6.18-4.88,48.07,22.88,103.8,22.88,151.87,0,2.03,1.69,4.15,3.33,6.26,4.91-8.17,4.88-16.76,9.01-25.66,12.36,4.68,9.28,10.12,18.14,16.27,26.5,27.33-8.34,53.03-21.39,75.93-38.56,6.18-65.3-10.69-121.97-44.64-172.21Zm-153.96,137.58c-14.81,0-26.96-13.64-26.96-30.4s11.88-30.51,26.96-30.51,27.12,13.64,26.98,30.43-11.9,30.48-26.98,30.48Zm99.66,0c-14.81,0-26.96-13.64-26.96-30.4s11.88-30.51,26.96-30.51,27.12,13.64,26.96,30.43c-.16,16.78-11.88,30.48-26.96,30.48Z"/>
</svg>