<?xml version="1.0" encoding="UTF-8"?>
<svg id="Layer_1" data-name="Layer 1" xmlns="http://www.w3.org/2000/svg" viewBox="0 0 512 512">
  <defs>
    <style>
      .cls-1 {
        fill: #fff;
        fill-rule: evenodd;
      }

      .cls-2 {
        fill: #28d246;
      }
    </style>
  </defs>
  <rect class="cls-2" x="0" width="512" height="512" rx="50" ry="50"/>
  <g id="WA_Logo" data-name="WA Logo">
    <path class="cls-1" d="m362.29,149.6c-28.2-28.1-65.71-43.58-105.66-43.6-82.33,0-149.34,66.68-149.37,148.65-.01,26.2,6.87,51.78,19.94,74.32l-21.19,77.03,79.18-20.67c21.82,11.84,46.38,18.08,71.38,18.09h.06s0,0,0,0c82.32,0,149.34-66.69,149.37-148.66.02-39.72-15.51-77.07-43.71-105.17Zm-105.66,228.72h-.05c-22.28,0-44.13-5.96-63.19-17.22l-4.53-2.68-46.99,12.27,12.54-45.59-2.95-4.67c-12.43-19.67-18.99-42.41-18.98-65.76.03-68.13,55.72-123.55,124.2-123.55,33.16.01,64.33,12.88,87.77,36.24,23.44,23.35,36.34,54.4,36.33,87.41-.03,68.13-55.72,123.56-124.15,123.56Zm68.1-92.54c-3.73-1.86-22.08-10.85-25.5-12.08-3.42-1.24-5.91-1.86-8.4,1.86-2.49,3.72-9.64,12.08-11.82,14.56-2.18,2.48-4.35,2.79-8.09.93-3.73-1.86-15.76-5.78-30.01-18.44-11.09-9.85-18.59-22.01-20.76-25.73-2.18-3.72-.23-5.73,1.64-7.58,1.68-1.66,3.73-4.34,5.6-6.51,1.87-2.17,2.49-3.72,3.73-6.2,1.24-2.48.62-4.65-.31-6.51-.93-1.86-8.4-20.14-11.51-27.58-3.03-7.24-6.11-6.26-8.4-6.38-2.17-.11-4.67-.13-7.15-.13s-6.53.93-9.95,4.65c-3.42,3.72-13.06,12.71-13.06,30.99s13.37,35.95,15.24,38.42c1.87,2.48,26.32,40,63.76,56.09,8.9,3.83,15.86,6.11,21.28,7.82,8.94,2.83,17.08,2.43,23.51,1.47,7.17-1.07,22.08-8.99,25.19-17.66,3.11-8.68,3.11-16.11,2.18-17.66-.93-1.55-3.42-2.48-7.15-4.34Z"/>
  </g>
</svg>