<?xml version="1.0" encoding="UTF-8"?>
<svg id="Layer_1" data-name="Layer 1" xmlns="http://www.w3.org/2000/svg" viewBox="0 0 512 512">
  <defs>
    <style>
      .cls-1 {
        fill: #fff;
      }

      .cls-2 {
        fill: #0046e6;
      }
    </style>
  </defs>
  <rect class="cls-2" width="512" height="512" rx="50" ry="50"/>
  <g>
    <path class="cls-1" d="m110.95,205.59h62.24v200.41h-62.24v-200.41Zm31.13-99.59c19.9,0,36.03,16.19,36.03,36.09s-16.13,36.15-36.03,36.15-36.08-16.21-36.08-36.15,16.13-36.09,36.08-36.09"/>
    <path class="cls-1" d="m212.19,205.59h59.62v27.41h.82c8.31-15.77,28.58-32.37,58.85-32.37,62.92,0,74.53,41.48,74.53,95.45v109.92h-62.11v-97.43c0-23.26-.45-53.15-32.3-53.15s-37.29,25.32-37.29,51.45v99.13h-62.12v-200.41Z"/>
  </g>
</svg>