<?xml version="1.0" encoding="UTF-8"?>
<svg xmlns="http://www.w3.org/2000/svg" viewBox="0 0 630 512">
  <defs>
    <style>
      .cls-1 {
        fill: #00c8ff;
      }

      .cls-2 {
        fill: #f0f0f0;
      }

      .cls-3 {
        mix-blend-mode: hard-light;
        opacity: .1;
      }

      .cls-4 {
        isolation: isolate;
      }

      .cls-5 {
        fill: none;
      }
    </style>
  </defs>
  <g class="cls-4">
    <g id="Layer_1" data-name="Layer 1">
      <g>
        <g>
          <polygon class="cls-2" points="628.75 158.9 593.44 123.59 530.8 141.24 529.03 158.9 528.15 158.9 382.78 313.82 409.95 158.9 374.63 123.59 354.25 150.07 354.25 158.9 323.93 158.9 270.27 462.72 226.25 476.69 261.56 512 347.57 512 375.24 356.07 441.2 469.05 430.97 476.69 466.28 512 571.41 512 461.25 331.93 628.75 158.9"/>
          <path class="cls-1" d="m425.94,296.62l110.16,180.07h-105.13l-91.04-155.93-27.66,155.93h-86.01l62.37-353.1h86.01l-27.16,154.92,145.37-154.92h100.6l-167.5,173.03Z"/>
          <polygon class="cls-3" points="409.94 158.9 398.5 224.13 347.47 278.51 292.44 337.14 241.28 391.68 288.63 123.59 374.63 123.59 409.94 158.9"/>
        </g>
        <g>
          <path class="cls-2" d="m359.39,0s-25.47,17.66-27.23,19.42c-.89.89-3.13,8.54-5.14,15.89h-23.87l-134.3,266.59L128.12,35.31,92.81,0l-12.94,35.31h-43.3l56.59,317.79h-29.02l35.31,35.31h107.64L394.7,35.31,359.39,0Z"/>
          <path class="cls-1" d="m267.85,0l-134.3,266.59-28.76-188.12L92.8,0H1.25l28.27,158.7,34.62,194.4h107.63L359.39,0h-91.54Z"/>
          <line class="cls-5" x1="104.5" y1="78.8" x2="101.89" y2="76.18"/>
          <polygon class="cls-3" points="140.22 114.49 104.5 78.8 53.92 132.7 29.52 158.7 1.25 0 92.79 0 92.79 .04 92.81 0 128.12 35.31 140.22 114.49"/>
        </g>
      </g>
    </g>
  </g>
</svg>